<svg xmlns="http://www.w3.org/2000/svg" xmlns:xlink="http://www.w3.org/1999/xlink" width="500" height="500" viewBox="0 0 500 500">
    <defs>
        <circle id="a" cx="214.771" cy="214.771" r="214.771"/>
    </defs>
    <g fill="none" fill-rule="evenodd">
        <g transform="translate(35.203 35.255)">
            <mask id="b" fill="#fff">
                <use xlink:href="#a"/>
            </mask>
            <use fill="#5F6060" xlink:href="#a"/>
            <circle cx="377.317" cy="350.051" r="250.216" fill="#30A6D9" mask="url(#b)"/>
        </g>
        <path fill="#5F6060" fill-opacity=".144" d="M325.288 133.827L464.16 269.55l-4.795 27.942-8.755 30.55-10.809 22.793-18.656 28.737-20.774 23.756-24.03 20.34-21.016 13.457-21.053 10.154L97.43 219.59z"/>
        <path fill="#FFF" stroke="#FAFDFE" d="M105.223 210.825l208.384-80.55c12.11-1.722 16.085 5.574 11.926 21.889-4.159 16.314-16.014 71.974-35.565 166.98-3.92 7.374-9.72 8.899-17.396 4.575-7.678-4.323-36.736-25.804-87.177-64.442l-3.887 54.584-.007.095c-3.305.372-5.598-1.531-6.881-5.707-1.283-4.177-7.768-25.347-19.456-63.512L98.16 226.689c-3.088-1.401-4.631-3.237-4.631-5.507 0-2.27 1.094-6.084 11.693-10.357z"/>
        <path fill="#E5EEF5" stroke="#E5EEF5" d="M185.395 259.277l100.461-90.942c1.395-4.719-3.187-3.925-13.744 2.382s-49.54 30.98-116.948 74.02l30.231 14.54z"/>
        <path stroke="#A9C9DD" d="M181.508 313.861l3.887-54.584 32.336 24.632"/>
        <path fill="#E5EEF5" d="M155.164 244.947l30.231 14.33 32.336 24.632-27.653 26.652c-7.79 5.178-12.799 4.992-15.028-.56-2.23-5.551-8.858-27.236-19.886-65.054z"/>
        <path fill="#AAC9DD" stroke="#A3CADF" d="M181.355 314.08c2.444-.31 4.695-1.021 6.753-2.134s11.932-10.459 29.623-28.037l-31.284-24.632-5.092 54.804z"/>
        <circle cx="141.772" cy="391.357" r="10.499" fill="#54A9EC" stroke="#979797"/>
        <circle cx="188.77" cy="169.484" r="5.444" fill="#54A9EC"/>
        <circle cx="172.828" cy="94.385" r="10.499" fill="#54A9EC" stroke="#979797"/>
        <circle cx="98.585" cy="250.026" r="10.499" fill="#54A9EC" stroke="#979797"/>
        <circle cx="72.584" cy="179.956" r="5.444" fill="#54A9EC" stroke="#979797"/>
        <circle cx="93.53" cy="320.044" r="5.444" fill="#54A9EC" stroke="#979797"/>
        <circle cx="245.8" cy="265.917" r="5.444" fill="#54A9EC"/>
        <circle cx="299.098" cy="78.443" r="5.444" fill="#54A9EC" stroke="#979797"/>
        <circle cx="283.155" cy="140.528" r="10.499" fill="#54A9EC"/>
    </g>
</svg>
